<svg width="80" height="80" viewBox="0 0 80 80" fill="none" xmlns="http://www.w3.org/2000/svg">
<path d="M77.0501 24.8488C66.3538 28.6344 57.6092 36.7825 53.2585 47.1792C53.0859 47.5882 52.4704 48.996 52.4704 48.996C52.4704 48.996 53.4426 43.3018 53.4426 40.0055C53.4427 31.7452 50.8811 23.6872 46.1093 16.937C41.3375 10.1867 34.5892 5.07505 26.7903 2.30313L26.8666 2.27587C22.5795 0.766173 18.0659 -0.0034957 13.5196 -8.02353e-05V-8.02353e-05C15.045 0.0280177 16.5149 0.576233 17.6847 1.55341C18.8546 2.5306 19.654 3.87787 19.95 5.37122C8.0197 12.2852 0 25.1616 0 39.9094C0 61.9514 17.9091 79.8203 39.9993 79.8203C62.0894 79.8203 80 61.9514 80 39.9094C80.0054 34.7458 79.0035 29.6305 77.0501 24.8488V24.8488ZM39.8986 33.9627C38.5767 33.9627 37.2845 33.5715 36.1854 32.8388C35.0863 32.106 34.2296 31.0646 33.7238 29.846C33.2179 28.6275 33.0856 27.2867 33.3434 25.9931C33.6013 24.6995 34.2379 23.5113 35.1726 22.5787C36.1073 21.6461 37.2982 21.011 38.5947 20.7537C39.8912 20.4964 41.235 20.6284 42.4563 21.1331C43.6775 21.6379 44.7214 22.4926 45.4558 23.5892C46.1902 24.6859 46.5822 25.9752 46.5822 27.2941C46.5822 29.0627 45.878 30.7589 44.6246 32.0095C43.3712 33.2601 41.6712 33.9627 39.8986 33.9627V33.9627ZM68.202 49.8599C66.88 49.8599 65.5877 49.4687 64.4885 48.7358C63.3893 48.0029 62.5327 46.9613 62.0269 45.7426C61.5211 44.5239 61.3889 43.1829 61.6471 41.8893C61.9052 40.5956 62.542 39.4074 63.477 38.4749C64.412 37.5424 65.6032 36.9075 66.8998 36.6505C68.1965 36.3935 69.5405 36.526 70.7617 37.0312C71.9829 37.5363 73.0265 38.3915 73.7606 39.4885C74.4946 40.5856 74.8861 41.8751 74.8855 43.1942C74.8848 44.9623 74.1803 46.6577 72.927 47.9077C71.6736 49.1577 69.9741 49.8599 68.202 49.8599V49.8599Z" fill="white"/>
</svg>
