<svg width="80" height="81" viewBox="0 0 80 81" fill="none" xmlns="http://www.w3.org/2000/svg">
<path d="M74.4569 79.7785L47.8026 47.904H39.6648L57.5419 69.3056C52.4022 72.5214 46.257 74.2956 40 74.2956C22.7933 74.2956 7.0391 60.9889 7.0391 40.4745C7.0391 19.96 22.7933 6.65334 40 6.65334C57.2067 6.65334 72.9609 19.96 72.9609 40.4745C72.9609 48.477 70.5711 55.3213 66.6853 60.7302L71.2477 66.1884C76.6729 59.4427 80 50.6455 80 40.4806C79.9938 16.1898 61.229 0 40 0C18.7709 0 0 16.1898 0 40.4745C0 64.7592 18.8827 80.949 40 80.949C47.933 80.949 55.5307 78.7312 62.0112 74.5174L66.3687 79.8401H74.5251L74.4755 79.7785H74.4569V79.7785Z" fill="white"/>
</svg>
