<svg width="80" height="80" viewBox="0 0 80 80" fill="none" xmlns="http://www.w3.org/2000/svg">
<path fill-rule="evenodd" clip-rule="evenodd" d="M52.4044 1.94821C48.6022 0.779189 44.6471 0 40 0C29.9214 0 21.121 3.37472 14.0869 9.52635L17.751 13.2091C19.0322 14.4826 19.2065 16.9748 18.0287 18.1727C16.8508 19.3707 14.4921 19.0569 13.1635 17.775L9.52778 14.0838C9.47686 14.1457 9.41495 14.2198 9.34354 14.3053C8.85746 14.8876 7.93161 15.9965 7.04044 17.3259C5.66893 19.3717 4.27396 21.8797 3.68382 23.2228C1.03395 29.2538 0 34.4697 0 40C0 45.0711 0.998494 50.6287 3.12432 55.5191C4.90326 59.6115 7.00933 62.9758 9.52778 65.8975C9.52778 65.8975 11.8097 63.5985 13.1635 62.2558C14.5174 60.9131 16.7834 60.5644 18.0287 61.8233C19.2739 63.0822 19.1102 65.4502 17.751 66.81L14.0869 70.4947C16.5306 72.5998 21.3422 75.8485 25.791 77.3931C28.0389 78.1735 29.4597 78.6351 31.362 79.0606C34.2864 79.7148 37.2634 80 40 80C47.7883 80 54.6866 77.8531 60.7281 74.2228C62.5402 73.1339 64.2162 71.9095 65.9105 70.4947C65.9105 70.4947 63.8316 68.3322 62.2798 66.81C60.7281 65.2879 60.6858 63.0597 61.9347 61.8233C63.1835 60.5868 65.3405 60.7958 66.8123 62.2558C68.2841 63.7158 70.4827 65.8975 70.4827 65.8975C71.7986 64.3517 73.9931 61.3207 75.2002 58.9821C76.4074 56.6436 77.0668 55.1517 77.7117 53.3455C79.2124 49.1424 80 44.5035 80 40C80 35.5801 79.175 30.6864 77.5476 26.2118C75.8271 21.4809 73.1458 17.2036 70.4827 14.0838C70.4827 14.0838 68.2318 16.3458 66.8123 17.775C65.3928 19.2042 63.1775 19.3139 61.9347 18.0818C60.6918 16.8496 60.8252 14.5857 62.222 13.2091L65.9105 9.52635C65.2478 8.92597 63.687 7.70175 61.9347 6.54267C60.4859 5.58441 58.7773 4.65123 58.3522 4.43708C56.4189 3.46303 54.468 2.5827 52.4044 1.94821ZM24.4444 40C24.4444 31.4089 31.4089 24.4444 40 24.4444C48.5911 24.4444 55.5555 31.4089 55.5555 40C55.5555 48.5911 48.5911 55.5555 40 55.5555C31.4089 55.5555 24.4444 48.5911 24.4444 40Z" fill="white"/>
<circle cx="40" cy="40.1434" r="9.67742" fill="white"/>
</svg>
