<?xml version="1.0" encoding="utf-8"?>
<!DOCTYPE svg PUBLIC "-//W3C//DTD SVG 1.1//EN" "http://www.w3.org/Graphics/SVG/1.1/DTD/svg11.dtd">
<svg version="1.1" id="Layer_1" xmlns="http://www.w3.org/2000/svg" xmlns:xlink="http://www.w3.org/1999/xlink" x="0px" y="0px"
width="1200px" height="1200px" viewBox="0 0 1200 1200" enable-background="new 0 0 1200 1200" xml:space="preserve">
<rect x="0" y="0" width="1200" height="1200" fill="rgb(255,255,255)" /><g transform="translate(96,96)"><g transform="translate(384,0) scale(0.096,0.096)"><g transform="" style="fill: rgb(0, 0, 0);">
<path d="M250,0c138.077,0,250,111.93,250,250c0,138.077-111.923,250-250,250C111.93,500,0,388.077,0,250C0,111.93,111.93,0,250,0z"
	/>
</g></g><g transform="translate(432,0) scale(0.096,0.096)"><g transform="" style="fill: rgb(0, 0, 0);">
<path d="M250,0c138.077,0,250,111.93,250,250c0,138.077-111.923,250-250,250C111.93,500,0,388.077,0,250C0,111.93,111.93,0,250,0z"
	/>
</g></g><g transform="translate(480,0) scale(0.096,0.096)"><g transform="" style="fill: rgb(0, 0, 0);">
<path d="M250,0c138.077,0,250,111.93,250,250c0,138.077-111.923,250-250,250C111.93,500,0,388.077,0,250C0,111.93,111.93,0,250,0z"
	/>
</g></g><g transform="translate(384,48) scale(0.096,0.096)"><g transform="" style="fill: rgb(0, 0, 0);">
<path d="M250,0c138.077,0,250,111.93,250,250c0,138.077-111.923,250-250,250C111.93,500,0,388.077,0,250C0,111.93,111.93,0,250,0z"
	/>
</g></g><g transform="translate(432,48) scale(0.096,0.096)"><g transform="" style="fill: rgb(0, 0, 0);">
<path d="M250,0c138.077,0,250,111.93,250,250c0,138.077-111.923,250-250,250C111.93,500,0,388.077,0,250C0,111.93,111.93,0,250,0z"
	/>
</g></g><g transform="translate(480,48) scale(0.096,0.096)"><g transform="" style="fill: rgb(0, 0, 0);">
<path d="M250,0c138.077,0,250,111.93,250,250c0,138.077-111.923,250-250,250C111.93,500,0,388.077,0,250C0,111.93,111.93,0,250,0z"
	/>
</g></g><g transform="translate(432,96) scale(0.096,0.096)"><g transform="" style="fill: rgb(0, 0, 0);">
<path d="M250,0c138.077,0,250,111.93,250,250c0,138.077-111.923,250-250,250C111.93,500,0,388.077,0,250C0,111.93,111.93,0,250,0z"
	/>
</g></g><g transform="translate(480,96) scale(0.096,0.096)"><g transform="" style="fill: rgb(0, 0, 0);">
<path d="M250,0c138.077,0,250,111.93,250,250c0,138.077-111.923,250-250,250C111.93,500,0,388.077,0,250C0,111.93,111.93,0,250,0z"
	/>
</g></g><g transform="translate(528,96) scale(0.096,0.096)"><g transform="" style="fill: rgb(0, 0, 0);">
<path d="M250,0c138.077,0,250,111.93,250,250c0,138.077-111.923,250-250,250C111.93,500,0,388.077,0,250C0,111.93,111.93,0,250,0z"
	/>
</g></g><g transform="translate(576,96) scale(0.096,0.096)"><g transform="" style="fill: rgb(0, 0, 0);">
<path d="M250,0c138.077,0,250,111.93,250,250c0,138.077-111.923,250-250,250C111.93,500,0,388.077,0,250C0,111.93,111.93,0,250,0z"
	/>
</g></g><g transform="translate(384,144) scale(0.096,0.096)"><g transform="" style="fill: rgb(0, 0, 0);">
<path d="M250,0c138.077,0,250,111.93,250,250c0,138.077-111.923,250-250,250C111.93,500,0,388.077,0,250C0,111.93,111.93,0,250,0z"
	/>
</g></g><g transform="translate(432,144) scale(0.096,0.096)"><g transform="" style="fill: rgb(0, 0, 0);">
<path d="M250,0c138.077,0,250,111.93,250,250c0,138.077-111.923,250-250,250C111.93,500,0,388.077,0,250C0,111.93,111.93,0,250,0z"
	/>
</g></g><g transform="translate(576,144) scale(0.096,0.096)"><g transform="" style="fill: rgb(0, 0, 0);">
<path d="M250,0c138.077,0,250,111.93,250,250c0,138.077-111.923,250-250,250C111.93,500,0,388.077,0,250C0,111.93,111.93,0,250,0z"
	/>
</g></g><g transform="translate(432,192) scale(0.096,0.096)"><g transform="" style="fill: rgb(0, 0, 0);">
<path d="M250,0c138.077,0,250,111.93,250,250c0,138.077-111.923,250-250,250C111.93,500,0,388.077,0,250C0,111.93,111.93,0,250,0z"
	/>
</g></g><g transform="translate(480,192) scale(0.096,0.096)"><g transform="" style="fill: rgb(0, 0, 0);">
<path d="M250,0c138.077,0,250,111.93,250,250c0,138.077-111.923,250-250,250C111.93,500,0,388.077,0,250C0,111.93,111.93,0,250,0z"
	/>
</g></g><g transform="translate(528,192) scale(0.096,0.096)"><g transform="" style="fill: rgb(0, 0, 0);">
<path d="M250,0c138.077,0,250,111.93,250,250c0,138.077-111.923,250-250,250C111.93,500,0,388.077,0,250C0,111.93,111.93,0,250,0z"
	/>
</g></g><g transform="translate(432,240) scale(0.096,0.096)"><g transform="" style="fill: rgb(0, 0, 0);">
<path d="M250,0c138.077,0,250,111.93,250,250c0,138.077-111.923,250-250,250C111.93,500,0,388.077,0,250C0,111.93,111.93,0,250,0z"
	/>
</g></g><g transform="translate(480,240) scale(0.096,0.096)"><g transform="" style="fill: rgb(0, 0, 0);">
<path d="M250,0c138.077,0,250,111.93,250,250c0,138.077-111.923,250-250,250C111.93,500,0,388.077,0,250C0,111.93,111.93,0,250,0z"
	/>
</g></g><g transform="translate(384,288) scale(0.096,0.096)"><g transform="" style="fill: rgb(0, 0, 0);">
<path d="M250,0c138.077,0,250,111.93,250,250c0,138.077-111.923,250-250,250C111.93,500,0,388.077,0,250C0,111.93,111.93,0,250,0z"
	/>
</g></g><g transform="translate(480,288) scale(0.096,0.096)"><g transform="" style="fill: rgb(0, 0, 0);">
<path d="M250,0c138.077,0,250,111.93,250,250c0,138.077-111.923,250-250,250C111.93,500,0,388.077,0,250C0,111.93,111.93,0,250,0z"
	/>
</g></g><g transform="translate(576,288) scale(0.096,0.096)"><g transform="" style="fill: rgb(0, 0, 0);">
<path d="M250,0c138.077,0,250,111.93,250,250c0,138.077-111.923,250-250,250C111.93,500,0,388.077,0,250C0,111.93,111.93,0,250,0z"
	/>
</g></g><g transform="translate(384,336) scale(0.096,0.096)"><g transform="" style="fill: rgb(0, 0, 0);">
<path d="M250,0c138.077,0,250,111.93,250,250c0,138.077-111.923,250-250,250C111.93,500,0,388.077,0,250C0,111.93,111.93,0,250,0z"
	/>
</g></g><g transform="translate(480,336) scale(0.096,0.096)"><g transform="" style="fill: rgb(0, 0, 0);">
<path d="M250,0c138.077,0,250,111.93,250,250c0,138.077-111.923,250-250,250C111.93,500,0,388.077,0,250C0,111.93,111.93,0,250,0z"
	/>
</g></g><g transform="translate(0,384) scale(0.096,0.096)"><g transform="" style="fill: rgb(0, 0, 0);">
<path d="M250,0c138.077,0,250,111.93,250,250c0,138.077-111.923,250-250,250C111.93,500,0,388.077,0,250C0,111.93,111.93,0,250,0z"
	/>
</g></g><g transform="translate(96,384) scale(0.096,0.096)"><g transform="" style="fill: rgb(0, 0, 0);">
<path d="M250,0c138.077,0,250,111.93,250,250c0,138.077-111.923,250-250,250C111.93,500,0,388.077,0,250C0,111.93,111.93,0,250,0z"
	/>
</g></g><g transform="translate(144,384) scale(0.096,0.096)"><g transform="" style="fill: rgb(0, 0, 0);">
<path d="M250,0c138.077,0,250,111.93,250,250c0,138.077-111.923,250-250,250C111.93,500,0,388.077,0,250C0,111.93,111.93,0,250,0z"
	/>
</g></g><g transform="translate(240,384) scale(0.096,0.096)"><g transform="" style="fill: rgb(0, 0, 0);">
<path d="M250,0c138.077,0,250,111.93,250,250c0,138.077-111.923,250-250,250C111.93,500,0,388.077,0,250C0,111.93,111.93,0,250,0z"
	/>
</g></g><g transform="translate(288,384) scale(0.096,0.096)"><g transform="" style="fill: rgb(0, 0, 0);">
<path d="M250,0c138.077,0,250,111.93,250,250c0,138.077-111.923,250-250,250C111.93,500,0,388.077,0,250C0,111.93,111.93,0,250,0z"
	/>
</g></g><g transform="translate(336,384) scale(0.096,0.096)"><g transform="" style="fill: rgb(0, 0, 0);">
<path d="M250,0c138.077,0,250,111.93,250,250c0,138.077-111.923,250-250,250C111.93,500,0,388.077,0,250C0,111.93,111.93,0,250,0z"
	/>
</g></g><g transform="translate(432,384) scale(0.096,0.096)"><g transform="" style="fill: rgb(0, 0, 0);">
<path d="M250,0c138.077,0,250,111.93,250,250c0,138.077-111.923,250-250,250C111.93,500,0,388.077,0,250C0,111.93,111.93,0,250,0z"
	/>
</g></g><g transform="translate(480,384) scale(0.096,0.096)"><g transform="" style="fill: rgb(0, 0, 0);">
<path d="M250,0c138.077,0,250,111.93,250,250c0,138.077-111.923,250-250,250C111.93,500,0,388.077,0,250C0,111.93,111.93,0,250,0z"
	/>
</g></g><g transform="translate(576,384) scale(0.096,0.096)"><g transform="" style="fill: rgb(0, 0, 0);">
<path d="M250,0c138.077,0,250,111.93,250,250c0,138.077-111.923,250-250,250C111.93,500,0,388.077,0,250C0,111.93,111.93,0,250,0z"
	/>
</g></g><g transform="translate(672,384) scale(0.096,0.096)"><g transform="" style="fill: rgb(0, 0, 0);">
<path d="M250,0c138.077,0,250,111.93,250,250c0,138.077-111.923,250-250,250C111.93,500,0,388.077,0,250C0,111.93,111.93,0,250,0z"
	/>
</g></g><g transform="translate(816,384) scale(0.096,0.096)"><g transform="" style="fill: rgb(0, 0, 0);">
<path d="M250,0c138.077,0,250,111.93,250,250c0,138.077-111.923,250-250,250C111.93,500,0,388.077,0,250C0,111.93,111.93,0,250,0z"
	/>
</g></g><g transform="translate(912,384) scale(0.096,0.096)"><g transform="" style="fill: rgb(0, 0, 0);">
<path d="M250,0c138.077,0,250,111.93,250,250c0,138.077-111.923,250-250,250C111.93,500,0,388.077,0,250C0,111.93,111.93,0,250,0z"
	/>
</g></g><g transform="translate(960,384) scale(0.096,0.096)"><g transform="" style="fill: rgb(0, 0, 0);">
<path d="M250,0c138.077,0,250,111.93,250,250c0,138.077-111.923,250-250,250C111.93,500,0,388.077,0,250C0,111.93,111.93,0,250,0z"
	/>
</g></g><g transform="translate(0,432) scale(0.096,0.096)"><g transform="" style="fill: rgb(0, 0, 0);">
<path d="M250,0c138.077,0,250,111.93,250,250c0,138.077-111.923,250-250,250C111.93,500,0,388.077,0,250C0,111.93,111.93,0,250,0z"
	/>
</g></g><g transform="translate(48,432) scale(0.096,0.096)"><g transform="" style="fill: rgb(0, 0, 0);">
<path d="M250,0c138.077,0,250,111.93,250,250c0,138.077-111.923,250-250,250C111.93,500,0,388.077,0,250C0,111.93,111.93,0,250,0z"
	/>
</g></g><g transform="translate(144,432) scale(0.096,0.096)"><g transform="" style="fill: rgb(0, 0, 0);">
<path d="M250,0c138.077,0,250,111.93,250,250c0,138.077-111.923,250-250,250C111.93,500,0,388.077,0,250C0,111.93,111.93,0,250,0z"
	/>
</g></g><g transform="translate(528,432) scale(0.096,0.096)"><g transform="" style="fill: rgb(0, 0, 0);">
<path d="M250,0c138.077,0,250,111.93,250,250c0,138.077-111.923,250-250,250C111.93,500,0,388.077,0,250C0,111.93,111.93,0,250,0z"
	/>
</g></g><g transform="translate(624,432) scale(0.096,0.096)"><g transform="" style="fill: rgb(0, 0, 0);">
<path d="M250,0c138.077,0,250,111.93,250,250c0,138.077-111.923,250-250,250C111.93,500,0,388.077,0,250C0,111.93,111.93,0,250,0z"
	/>
</g></g><g transform="translate(672,432) scale(0.096,0.096)"><g transform="" style="fill: rgb(0, 0, 0);">
<path d="M250,0c138.077,0,250,111.93,250,250c0,138.077-111.923,250-250,250C111.93,500,0,388.077,0,250C0,111.93,111.93,0,250,0z"
	/>
</g></g><g transform="translate(720,432) scale(0.096,0.096)"><g transform="" style="fill: rgb(0, 0, 0);">
<path d="M250,0c138.077,0,250,111.93,250,250c0,138.077-111.923,250-250,250C111.93,500,0,388.077,0,250C0,111.93,111.93,0,250,0z"
	/>
</g></g><g transform="translate(768,432) scale(0.096,0.096)"><g transform="" style="fill: rgb(0, 0, 0);">
<path d="M250,0c138.077,0,250,111.93,250,250c0,138.077-111.923,250-250,250C111.93,500,0,388.077,0,250C0,111.93,111.93,0,250,0z"
	/>
</g></g><g transform="translate(816,432) scale(0.096,0.096)"><g transform="" style="fill: rgb(0, 0, 0);">
<path d="M250,0c138.077,0,250,111.93,250,250c0,138.077-111.923,250-250,250C111.93,500,0,388.077,0,250C0,111.93,111.93,0,250,0z"
	/>
</g></g><g transform="translate(864,432) scale(0.096,0.096)"><g transform="" style="fill: rgb(0, 0, 0);">
<path d="M250,0c138.077,0,250,111.93,250,250c0,138.077-111.923,250-250,250C111.93,500,0,388.077,0,250C0,111.93,111.93,0,250,0z"
	/>
</g></g><g transform="translate(912,432) scale(0.096,0.096)"><g transform="" style="fill: rgb(0, 0, 0);">
<path d="M250,0c138.077,0,250,111.93,250,250c0,138.077-111.923,250-250,250C111.93,500,0,388.077,0,250C0,111.93,111.93,0,250,0z"
	/>
</g></g><g transform="translate(960,432) scale(0.096,0.096)"><g transform="" style="fill: rgb(0, 0, 0);">
<path d="M250,0c138.077,0,250,111.93,250,250c0,138.077-111.923,250-250,250C111.93,500,0,388.077,0,250C0,111.93,111.93,0,250,0z"
	/>
</g></g><g transform="translate(0,480) scale(0.096,0.096)"><g transform="" style="fill: rgb(0, 0, 0);">
<path d="M250,0c138.077,0,250,111.93,250,250c0,138.077-111.923,250-250,250C111.93,500,0,388.077,0,250C0,111.93,111.93,0,250,0z"
	/>
</g></g><g transform="translate(96,480) scale(0.096,0.096)"><g transform="" style="fill: rgb(0, 0, 0);">
<path d="M250,0c138.077,0,250,111.93,250,250c0,138.077-111.923,250-250,250C111.93,500,0,388.077,0,250C0,111.93,111.93,0,250,0z"
	/>
</g></g><g transform="translate(240,480) scale(0.096,0.096)"><g transform="" style="fill: rgb(0, 0, 0);">
<path d="M250,0c138.077,0,250,111.93,250,250c0,138.077-111.923,250-250,250C111.93,500,0,388.077,0,250C0,111.93,111.93,0,250,0z"
	/>
</g></g><g transform="translate(288,480) scale(0.096,0.096)"><g transform="" style="fill: rgb(0, 0, 0);">
<path d="M250,0c138.077,0,250,111.93,250,250c0,138.077-111.923,250-250,250C111.93,500,0,388.077,0,250C0,111.93,111.93,0,250,0z"
	/>
</g></g><g transform="translate(336,480) scale(0.096,0.096)"><g transform="" style="fill: rgb(0, 0, 0);">
<path d="M250,0c138.077,0,250,111.93,250,250c0,138.077-111.923,250-250,250C111.93,500,0,388.077,0,250C0,111.93,111.93,0,250,0z"
	/>
</g></g><g transform="translate(384,480) scale(0.096,0.096)"><g transform="" style="fill: rgb(0, 0, 0);">
<path d="M250,0c138.077,0,250,111.93,250,250c0,138.077-111.923,250-250,250C111.93,500,0,388.077,0,250C0,111.93,111.93,0,250,0z"
	/>
</g></g><g transform="translate(432,480) scale(0.096,0.096)"><g transform="" style="fill: rgb(0, 0, 0);">
<path d="M250,0c138.077,0,250,111.93,250,250c0,138.077-111.923,250-250,250C111.93,500,0,388.077,0,250C0,111.93,111.93,0,250,0z"
	/>
</g></g><g transform="translate(624,480) scale(0.096,0.096)"><g transform="" style="fill: rgb(0, 0, 0);">
<path d="M250,0c138.077,0,250,111.93,250,250c0,138.077-111.923,250-250,250C111.93,500,0,388.077,0,250C0,111.93,111.93,0,250,0z"
	/>
</g></g><g transform="translate(816,480) scale(0.096,0.096)"><g transform="" style="fill: rgb(0, 0, 0);">
<path d="M250,0c138.077,0,250,111.93,250,250c0,138.077-111.923,250-250,250C111.93,500,0,388.077,0,250C0,111.93,111.93,0,250,0z"
	/>
</g></g><g transform="translate(912,480) scale(0.096,0.096)"><g transform="" style="fill: rgb(0, 0, 0);">
<path d="M250,0c138.077,0,250,111.93,250,250c0,138.077-111.923,250-250,250C111.93,500,0,388.077,0,250C0,111.93,111.93,0,250,0z"
	/>
</g></g><g transform="translate(960,480) scale(0.096,0.096)"><g transform="" style="fill: rgb(0, 0, 0);">
<path d="M250,0c138.077,0,250,111.93,250,250c0,138.077-111.923,250-250,250C111.93,500,0,388.077,0,250C0,111.93,111.93,0,250,0z"
	/>
</g></g><g transform="translate(0,528) scale(0.096,0.096)"><g transform="" style="fill: rgb(0, 0, 0);">
<path d="M250,0c138.077,0,250,111.93,250,250c0,138.077-111.923,250-250,250C111.93,500,0,388.077,0,250C0,111.93,111.93,0,250,0z"
	/>
</g></g><g transform="translate(96,528) scale(0.096,0.096)"><g transform="" style="fill: rgb(0, 0, 0);">
<path d="M250,0c138.077,0,250,111.93,250,250c0,138.077-111.923,250-250,250C111.93,500,0,388.077,0,250C0,111.93,111.93,0,250,0z"
	/>
</g></g><g transform="translate(240,528) scale(0.096,0.096)"><g transform="" style="fill: rgb(0, 0, 0);">
<path d="M250,0c138.077,0,250,111.93,250,250c0,138.077-111.923,250-250,250C111.93,500,0,388.077,0,250C0,111.93,111.93,0,250,0z"
	/>
</g></g><g transform="translate(336,528) scale(0.096,0.096)"><g transform="" style="fill: rgb(0, 0, 0);">
<path d="M250,0c138.077,0,250,111.93,250,250c0,138.077-111.923,250-250,250C111.93,500,0,388.077,0,250C0,111.93,111.93,0,250,0z"
	/>
</g></g><g transform="translate(528,528) scale(0.096,0.096)"><g transform="" style="fill: rgb(0, 0, 0);">
<path d="M250,0c138.077,0,250,111.93,250,250c0,138.077-111.923,250-250,250C111.93,500,0,388.077,0,250C0,111.93,111.93,0,250,0z"
	/>
</g></g><g transform="translate(576,528) scale(0.096,0.096)"><g transform="" style="fill: rgb(0, 0, 0);">
<path d="M250,0c138.077,0,250,111.93,250,250c0,138.077-111.923,250-250,250C111.93,500,0,388.077,0,250C0,111.93,111.93,0,250,0z"
	/>
</g></g><g transform="translate(720,528) scale(0.096,0.096)"><g transform="" style="fill: rgb(0, 0, 0);">
<path d="M250,0c138.077,0,250,111.93,250,250c0,138.077-111.923,250-250,250C111.93,500,0,388.077,0,250C0,111.93,111.93,0,250,0z"
	/>
</g></g><g transform="translate(816,528) scale(0.096,0.096)"><g transform="" style="fill: rgb(0, 0, 0);">
<path d="M250,0c138.077,0,250,111.93,250,250c0,138.077-111.923,250-250,250C111.93,500,0,388.077,0,250C0,111.93,111.93,0,250,0z"
	/>
</g></g><g transform="translate(912,528) scale(0.096,0.096)"><g transform="" style="fill: rgb(0, 0, 0);">
<path d="M250,0c138.077,0,250,111.93,250,250c0,138.077-111.923,250-250,250C111.93,500,0,388.077,0,250C0,111.93,111.93,0,250,0z"
	/>
</g></g><g transform="translate(0,576) scale(0.096,0.096)"><g transform="" style="fill: rgb(0, 0, 0);">
<path d="M250,0c138.077,0,250,111.93,250,250c0,138.077-111.923,250-250,250C111.93,500,0,388.077,0,250C0,111.93,111.93,0,250,0z"
	/>
</g></g><g transform="translate(192,576) scale(0.096,0.096)"><g transform="" style="fill: rgb(0, 0, 0);">
<path d="M250,0c138.077,0,250,111.93,250,250c0,138.077-111.923,250-250,250C111.93,500,0,388.077,0,250C0,111.93,111.93,0,250,0z"
	/>
</g></g><g transform="translate(288,576) scale(0.096,0.096)"><g transform="" style="fill: rgb(0, 0, 0);">
<path d="M250,0c138.077,0,250,111.93,250,250c0,138.077-111.923,250-250,250C111.93,500,0,388.077,0,250C0,111.93,111.93,0,250,0z"
	/>
</g></g><g transform="translate(432,576) scale(0.096,0.096)"><g transform="" style="fill: rgb(0, 0, 0);">
<path d="M250,0c138.077,0,250,111.93,250,250c0,138.077-111.923,250-250,250C111.93,500,0,388.077,0,250C0,111.93,111.93,0,250,0z"
	/>
</g></g><g transform="translate(480,576) scale(0.096,0.096)"><g transform="" style="fill: rgb(0, 0, 0);">
<path d="M250,0c138.077,0,250,111.93,250,250c0,138.077-111.923,250-250,250C111.93,500,0,388.077,0,250C0,111.93,111.93,0,250,0z"
	/>
</g></g><g transform="translate(528,576) scale(0.096,0.096)"><g transform="" style="fill: rgb(0, 0, 0);">
<path d="M250,0c138.077,0,250,111.93,250,250c0,138.077-111.923,250-250,250C111.93,500,0,388.077,0,250C0,111.93,111.93,0,250,0z"
	/>
</g></g><g transform="translate(576,576) scale(0.096,0.096)"><g transform="" style="fill: rgb(0, 0, 0);">
<path d="M250,0c138.077,0,250,111.93,250,250c0,138.077-111.923,250-250,250C111.93,500,0,388.077,0,250C0,111.93,111.93,0,250,0z"
	/>
</g></g><g transform="translate(672,576) scale(0.096,0.096)"><g transform="" style="fill: rgb(0, 0, 0);">
<path d="M250,0c138.077,0,250,111.93,250,250c0,138.077-111.923,250-250,250C111.93,500,0,388.077,0,250C0,111.93,111.93,0,250,0z"
	/>
</g></g><g transform="translate(768,576) scale(0.096,0.096)"><g transform="" style="fill: rgb(0, 0, 0);">
<path d="M250,0c138.077,0,250,111.93,250,250c0,138.077-111.923,250-250,250C111.93,500,0,388.077,0,250C0,111.93,111.93,0,250,0z"
	/>
</g></g><g transform="translate(816,576) scale(0.096,0.096)"><g transform="" style="fill: rgb(0, 0, 0);">
<path d="M250,0c138.077,0,250,111.93,250,250c0,138.077-111.923,250-250,250C111.93,500,0,388.077,0,250C0,111.93,111.93,0,250,0z"
	/>
</g></g><g transform="translate(960,576) scale(0.096,0.096)"><g transform="" style="fill: rgb(0, 0, 0);">
<path d="M250,0c138.077,0,250,111.93,250,250c0,138.077-111.923,250-250,250C111.93,500,0,388.077,0,250C0,111.93,111.93,0,250,0z"
	/>
</g></g><g transform="translate(384,624) scale(0.096,0.096)"><g transform="" style="fill: rgb(0, 0, 0);">
<path d="M250,0c138.077,0,250,111.93,250,250c0,138.077-111.923,250-250,250C111.93,500,0,388.077,0,250C0,111.93,111.93,0,250,0z"
	/>
</g></g><g transform="translate(528,624) scale(0.096,0.096)"><g transform="" style="fill: rgb(0, 0, 0);">
<path d="M250,0c138.077,0,250,111.93,250,250c0,138.077-111.923,250-250,250C111.93,500,0,388.077,0,250C0,111.93,111.93,0,250,0z"
	/>
</g></g><g transform="translate(576,624) scale(0.096,0.096)"><g transform="" style="fill: rgb(0, 0, 0);">
<path d="M250,0c138.077,0,250,111.93,250,250c0,138.077-111.923,250-250,250C111.93,500,0,388.077,0,250C0,111.93,111.93,0,250,0z"
	/>
</g></g><g transform="translate(672,624) scale(0.096,0.096)"><g transform="" style="fill: rgb(0, 0, 0);">
<path d="M250,0c138.077,0,250,111.93,250,250c0,138.077-111.923,250-250,250C111.93,500,0,388.077,0,250C0,111.93,111.93,0,250,0z"
	/>
</g></g><g transform="translate(768,624) scale(0.096,0.096)"><g transform="" style="fill: rgb(0, 0, 0);">
<path d="M250,0c138.077,0,250,111.93,250,250c0,138.077-111.923,250-250,250C111.93,500,0,388.077,0,250C0,111.93,111.93,0,250,0z"
	/>
</g></g><g transform="translate(384,672) scale(0.096,0.096)"><g transform="" style="fill: rgb(0, 0, 0);">
<path d="M250,0c138.077,0,250,111.93,250,250c0,138.077-111.923,250-250,250C111.93,500,0,388.077,0,250C0,111.93,111.93,0,250,0z"
	/>
</g></g><g transform="translate(432,672) scale(0.096,0.096)"><g transform="" style="fill: rgb(0, 0, 0);">
<path d="M250,0c138.077,0,250,111.93,250,250c0,138.077-111.923,250-250,250C111.93,500,0,388.077,0,250C0,111.93,111.93,0,250,0z"
	/>
</g></g><g transform="translate(528,672) scale(0.096,0.096)"><g transform="" style="fill: rgb(0, 0, 0);">
<path d="M250,0c138.077,0,250,111.93,250,250c0,138.077-111.923,250-250,250C111.93,500,0,388.077,0,250C0,111.93,111.93,0,250,0z"
	/>
</g></g><g transform="translate(624,672) scale(0.096,0.096)"><g transform="" style="fill: rgb(0, 0, 0);">
<path d="M250,0c138.077,0,250,111.93,250,250c0,138.077-111.923,250-250,250C111.93,500,0,388.077,0,250C0,111.93,111.93,0,250,0z"
	/>
</g></g><g transform="translate(672,672) scale(0.096,0.096)"><g transform="" style="fill: rgb(0, 0, 0);">
<path d="M250,0c138.077,0,250,111.93,250,250c0,138.077-111.923,250-250,250C111.93,500,0,388.077,0,250C0,111.93,111.93,0,250,0z"
	/>
</g></g><g transform="translate(768,672) scale(0.096,0.096)"><g transform="" style="fill: rgb(0, 0, 0);">
<path d="M250,0c138.077,0,250,111.93,250,250c0,138.077-111.923,250-250,250C111.93,500,0,388.077,0,250C0,111.93,111.93,0,250,0z"
	/>
</g></g><g transform="translate(384,720) scale(0.096,0.096)"><g transform="" style="fill: rgb(0, 0, 0);">
<path d="M250,0c138.077,0,250,111.93,250,250c0,138.077-111.923,250-250,250C111.93,500,0,388.077,0,250C0,111.93,111.93,0,250,0z"
	/>
</g></g><g transform="translate(624,720) scale(0.096,0.096)"><g transform="" style="fill: rgb(0, 0, 0);">
<path d="M250,0c138.077,0,250,111.93,250,250c0,138.077-111.923,250-250,250C111.93,500,0,388.077,0,250C0,111.93,111.93,0,250,0z"
	/>
</g></g><g transform="translate(720,720) scale(0.096,0.096)"><g transform="" style="fill: rgb(0, 0, 0);">
<path d="M250,0c138.077,0,250,111.93,250,250c0,138.077-111.923,250-250,250C111.93,500,0,388.077,0,250C0,111.93,111.93,0,250,0z"
	/>
</g></g><g transform="translate(768,720) scale(0.096,0.096)"><g transform="" style="fill: rgb(0, 0, 0);">
<path d="M250,0c138.077,0,250,111.93,250,250c0,138.077-111.923,250-250,250C111.93,500,0,388.077,0,250C0,111.93,111.93,0,250,0z"
	/>
</g></g><g transform="translate(816,720) scale(0.096,0.096)"><g transform="" style="fill: rgb(0, 0, 0);">
<path d="M250,0c138.077,0,250,111.93,250,250c0,138.077-111.923,250-250,250C111.93,500,0,388.077,0,250C0,111.93,111.93,0,250,0z"
	/>
</g></g><g transform="translate(864,720) scale(0.096,0.096)"><g transform="" style="fill: rgb(0, 0, 0);">
<path d="M250,0c138.077,0,250,111.93,250,250c0,138.077-111.923,250-250,250C111.93,500,0,388.077,0,250C0,111.93,111.93,0,250,0z"
	/>
</g></g><g transform="translate(960,720) scale(0.096,0.096)"><g transform="" style="fill: rgb(0, 0, 0);">
<path d="M250,0c138.077,0,250,111.93,250,250c0,138.077-111.923,250-250,250C111.93,500,0,388.077,0,250C0,111.93,111.93,0,250,0z"
	/>
</g></g><g transform="translate(432,768) scale(0.096,0.096)"><g transform="" style="fill: rgb(0, 0, 0);">
<path d="M250,0c138.077,0,250,111.93,250,250c0,138.077-111.923,250-250,250C111.93,500,0,388.077,0,250C0,111.93,111.93,0,250,0z"
	/>
</g></g><g transform="translate(576,768) scale(0.096,0.096)"><g transform="" style="fill: rgb(0, 0, 0);">
<path d="M250,0c138.077,0,250,111.93,250,250c0,138.077-111.923,250-250,250C111.93,500,0,388.077,0,250C0,111.93,111.93,0,250,0z"
	/>
</g></g><g transform="translate(768,768) scale(0.096,0.096)"><g transform="" style="fill: rgb(0, 0, 0);">
<path d="M250,0c138.077,0,250,111.93,250,250c0,138.077-111.923,250-250,250C111.93,500,0,388.077,0,250C0,111.93,111.93,0,250,0z"
	/>
</g></g><g transform="translate(864,768) scale(0.096,0.096)"><g transform="" style="fill: rgb(0, 0, 0);">
<path d="M250,0c138.077,0,250,111.93,250,250c0,138.077-111.923,250-250,250C111.93,500,0,388.077,0,250C0,111.93,111.93,0,250,0z"
	/>
</g></g><g transform="translate(912,768) scale(0.096,0.096)"><g transform="" style="fill: rgb(0, 0, 0);">
<path d="M250,0c138.077,0,250,111.93,250,250c0,138.077-111.923,250-250,250C111.93,500,0,388.077,0,250C0,111.93,111.93,0,250,0z"
	/>
</g></g><g transform="translate(384,816) scale(0.096,0.096)"><g transform="" style="fill: rgb(0, 0, 0);">
<path d="M250,0c138.077,0,250,111.93,250,250c0,138.077-111.923,250-250,250C111.93,500,0,388.077,0,250C0,111.93,111.93,0,250,0z"
	/>
</g></g><g transform="translate(480,816) scale(0.096,0.096)"><g transform="" style="fill: rgb(0, 0, 0);">
<path d="M250,0c138.077,0,250,111.93,250,250c0,138.077-111.923,250-250,250C111.93,500,0,388.077,0,250C0,111.93,111.93,0,250,0z"
	/>
</g></g><g transform="translate(576,816) scale(0.096,0.096)"><g transform="" style="fill: rgb(0, 0, 0);">
<path d="M250,0c138.077,0,250,111.93,250,250c0,138.077-111.923,250-250,250C111.93,500,0,388.077,0,250C0,111.93,111.93,0,250,0z"
	/>
</g></g><g transform="translate(720,816) scale(0.096,0.096)"><g transform="" style="fill: rgb(0, 0, 0);">
<path d="M250,0c138.077,0,250,111.93,250,250c0,138.077-111.923,250-250,250C111.93,500,0,388.077,0,250C0,111.93,111.93,0,250,0z"
	/>
</g></g><g transform="translate(912,816) scale(0.096,0.096)"><g transform="" style="fill: rgb(0, 0, 0);">
<path d="M250,0c138.077,0,250,111.93,250,250c0,138.077-111.923,250-250,250C111.93,500,0,388.077,0,250C0,111.93,111.93,0,250,0z"
	/>
</g></g><g transform="translate(384,864) scale(0.096,0.096)"><g transform="" style="fill: rgb(0, 0, 0);">
<path d="M250,0c138.077,0,250,111.93,250,250c0,138.077-111.923,250-250,250C111.93,500,0,388.077,0,250C0,111.93,111.93,0,250,0z"
	/>
</g></g><g transform="translate(576,864) scale(0.096,0.096)"><g transform="" style="fill: rgb(0, 0, 0);">
<path d="M250,0c138.077,0,250,111.93,250,250c0,138.077-111.923,250-250,250C111.93,500,0,388.077,0,250C0,111.93,111.93,0,250,0z"
	/>
</g></g><g transform="translate(624,864) scale(0.096,0.096)"><g transform="" style="fill: rgb(0, 0, 0);">
<path d="M250,0c138.077,0,250,111.93,250,250c0,138.077-111.923,250-250,250C111.93,500,0,388.077,0,250C0,111.93,111.93,0,250,0z"
	/>
</g></g><g transform="translate(720,864) scale(0.096,0.096)"><g transform="" style="fill: rgb(0, 0, 0);">
<path d="M250,0c138.077,0,250,111.93,250,250c0,138.077-111.923,250-250,250C111.93,500,0,388.077,0,250C0,111.93,111.93,0,250,0z"
	/>
</g></g><g transform="translate(864,864) scale(0.096,0.096)"><g transform="" style="fill: rgb(0, 0, 0);">
<path d="M250,0c138.077,0,250,111.93,250,250c0,138.077-111.923,250-250,250C111.93,500,0,388.077,0,250C0,111.93,111.93,0,250,0z"
	/>
</g></g><g transform="translate(528,912) scale(0.096,0.096)"><g transform="" style="fill: rgb(0, 0, 0);">
<path d="M250,0c138.077,0,250,111.93,250,250c0,138.077-111.923,250-250,250C111.93,500,0,388.077,0,250C0,111.93,111.93,0,250,0z"
	/>
</g></g><g transform="translate(576,912) scale(0.096,0.096)"><g transform="" style="fill: rgb(0, 0, 0);">
<path d="M250,0c138.077,0,250,111.93,250,250c0,138.077-111.923,250-250,250C111.93,500,0,388.077,0,250C0,111.93,111.93,0,250,0z"
	/>
</g></g><g transform="translate(624,912) scale(0.096,0.096)"><g transform="" style="fill: rgb(0, 0, 0);">
<path d="M250,0c138.077,0,250,111.93,250,250c0,138.077-111.923,250-250,250C111.93,500,0,388.077,0,250C0,111.93,111.93,0,250,0z"
	/>
</g></g><g transform="translate(672,912) scale(0.096,0.096)"><g transform="" style="fill: rgb(0, 0, 0);">
<path d="M250,0c138.077,0,250,111.93,250,250c0,138.077-111.923,250-250,250C111.93,500,0,388.077,0,250C0,111.93,111.93,0,250,0z"
	/>
</g></g><g transform="translate(720,912) scale(0.096,0.096)"><g transform="" style="fill: rgb(0, 0, 0);">
<path d="M250,0c138.077,0,250,111.93,250,250c0,138.077-111.923,250-250,250C111.93,500,0,388.077,0,250C0,111.93,111.93,0,250,0z"
	/>
</g></g><g transform="translate(768,912) scale(0.096,0.096)"><g transform="" style="fill: rgb(0, 0, 0);">
<path d="M250,0c138.077,0,250,111.93,250,250c0,138.077-111.923,250-250,250C111.93,500,0,388.077,0,250C0,111.93,111.93,0,250,0z"
	/>
</g></g><g transform="translate(960,912) scale(0.096,0.096)"><g transform="" style="fill: rgb(0, 0, 0);">
<path d="M250,0c138.077,0,250,111.93,250,250c0,138.077-111.923,250-250,250C111.93,500,0,388.077,0,250C0,111.93,111.93,0,250,0z"
	/>
</g></g><g transform="translate(384,960) scale(0.096,0.096)"><g transform="" style="fill: rgb(0, 0, 0);">
<path d="M250,0c138.077,0,250,111.93,250,250c0,138.077-111.923,250-250,250C111.93,500,0,388.077,0,250C0,111.93,111.93,0,250,0z"
	/>
</g></g><g transform="translate(432,960) scale(0.096,0.096)"><g transform="" style="fill: rgb(0, 0, 0);">
<path d="M250,0c138.077,0,250,111.93,250,250c0,138.077-111.923,250-250,250C111.93,500,0,388.077,0,250C0,111.93,111.93,0,250,0z"
	/>
</g></g><g transform="translate(480,960) scale(0.096,0.096)"><g transform="" style="fill: rgb(0, 0, 0);">
<path d="M250,0c138.077,0,250,111.93,250,250c0,138.077-111.923,250-250,250C111.93,500,0,388.077,0,250C0,111.93,111.93,0,250,0z"
	/>
</g></g><g transform="translate(528,960) scale(0.096,0.096)"><g transform="" style="fill: rgb(0, 0, 0);">
<path d="M250,0c138.077,0,250,111.93,250,250c0,138.077-111.923,250-250,250C111.93,500,0,388.077,0,250C0,111.93,111.93,0,250,0z"
	/>
</g></g><g transform="translate(576,960) scale(0.096,0.096)"><g transform="" style="fill: rgb(0, 0, 0);">
<path d="M250,0c138.077,0,250,111.93,250,250c0,138.077-111.923,250-250,250C111.93,500,0,388.077,0,250C0,111.93,111.93,0,250,0z"
	/>
</g></g><g transform="translate(624,960) scale(0.096,0.096)"><g transform="" style="fill: rgb(0, 0, 0);">
<path d="M250,0c138.077,0,250,111.93,250,250c0,138.077-111.923,250-250,250C111.93,500,0,388.077,0,250C0,111.93,111.93,0,250,0z"
	/>
</g></g><g transform="translate(672,960) scale(0.096,0.096)"><g transform="" style="fill: rgb(0, 0, 0);">
<path d="M250,0c138.077,0,250,111.93,250,250c0,138.077-111.923,250-250,250C111.93,500,0,388.077,0,250C0,111.93,111.93,0,250,0z"
	/>
</g></g><g transform="translate(768,960) scale(0.096,0.096)"><g transform="" style="fill: rgb(0, 0, 0);">
<path d="M250,0c138.077,0,250,111.93,250,250c0,138.077-111.923,250-250,250C111.93,500,0,388.077,0,250C0,111.93,111.93,0,250,0z"
	/>
</g></g><g transform="translate(816,960) scale(0.096,0.096)"><g transform="" style="fill: rgb(0, 0, 0);">
<path d="M250,0c138.077,0,250,111.93,250,250c0,138.077-111.923,250-250,250C111.93,500,0,388.077,0,250C0,111.93,111.93,0,250,0z"
	/>
</g></g><g transform="translate(864,960) scale(0.096,0.096)"><g transform="" style="fill: rgb(0, 0, 0);">
<path d="M250,0c138.077,0,250,111.93,250,250c0,138.077-111.923,250-250,250C111.93,500,0,388.077,0,250C0,111.93,111.93,0,250,0z"
	/>
</g></g><g transform="translate(0,0) scale(3.36, 3.36)"><g transform="" style="fill: rgb(0, 0, 0);">
<g>
	<path style="fill:none;" d="M65.859,15.008H34.141c-4.082,0-7.869,1.258-10.979,3.398c-2.419,1.665-4.428,3.864-5.848,6.421
		C15.838,27.484,15,30.526,15,33.758v32.471c0,10.344,8.586,18.76,19.145,18.76L50,84.992l15.855-0.004
		C76.414,84.988,85,76.572,85,66.229V33.758C85,23.419,76.414,15.008,65.859,15.008z"/>
	<path d="M65.859,0.008H34.141h0C18.683,0.008,5.587,10.221,1.4,24.18c-0.433,1.444-0.771,2.928-1.006,4.445
		C0.135,30.299,0,32.013,0,33.758v32.471c0,18.619,15.32,33.76,34.141,33.76L50,99.992l15.859-0.004
		c18.82,0,34.141-15.141,34.141-33.76V33.758C100,15.148,84.68,0.008,65.859,0.008z M85,66.229c0,10.344-8.586,18.76-19.145,18.76
		L50,84.992l-15.855-0.004C23.586,84.988,15,76.572,15,66.229V33.758c0-3.231,0.838-6.273,2.313-8.931
		c1.42-2.557,3.429-4.756,5.848-6.421c3.11-2.141,6.897-3.398,10.979-3.398h31.719C76.414,15.008,85,23.419,85,33.758V66.229z"/>
</g>
</g></g><g transform="translate(672,0) scale(3.36, 3.36)"><g transform="" style="fill: rgb(0, 0, 0);">
<g>
	<path style="fill:none;" d="M65.859,15.008H34.141c-4.082,0-7.869,1.258-10.979,3.398c-2.419,1.665-4.428,3.864-5.848,6.421
		C15.838,27.484,15,30.526,15,33.758v32.471c0,10.344,8.586,18.76,19.145,18.76L50,84.992l15.855-0.004
		C76.414,84.988,85,76.572,85,66.229V33.758C85,23.419,76.414,15.008,65.859,15.008z"/>
	<path d="M65.859,0.008H34.141h0C18.683,0.008,5.587,10.221,1.4,24.18c-0.433,1.444-0.771,2.928-1.006,4.445
		C0.135,30.299,0,32.013,0,33.758v32.471c0,18.619,15.32,33.76,34.141,33.76L50,99.992l15.859-0.004
		c18.82,0,34.141-15.141,34.141-33.76V33.758C100,15.148,84.68,0.008,65.859,0.008z M85,66.229c0,10.344-8.586,18.76-19.145,18.76
		L50,84.992l-15.855-0.004C23.586,84.988,15,76.572,15,66.229V33.758c0-3.231,0.838-6.273,2.313-8.931
		c1.42-2.557,3.429-4.756,5.848-6.421c3.11-2.141,6.897-3.398,10.979-3.398h31.719C76.414,15.008,85,23.419,85,33.758V66.229z"/>
</g>
</g></g><g transform="translate(0,672) scale(3.36, 3.36)"><g transform="" style="fill: rgb(0, 0, 0);">
<g>
	<path style="fill:none;" d="M65.859,15.008H34.141c-4.082,0-7.869,1.258-10.979,3.398c-2.419,1.665-4.428,3.864-5.848,6.421
		C15.838,27.484,15,30.526,15,33.758v32.471c0,10.344,8.586,18.76,19.145,18.76L50,84.992l15.855-0.004
		C76.414,84.988,85,76.572,85,66.229V33.758C85,23.419,76.414,15.008,65.859,15.008z"/>
	<path d="M65.859,0.008H34.141h0C18.683,0.008,5.587,10.221,1.4,24.18c-0.433,1.444-0.771,2.928-1.006,4.445
		C0.135,30.299,0,32.013,0,33.758v32.471c0,18.619,15.32,33.76,34.141,33.76L50,99.992l15.859-0.004
		c18.82,0,34.141-15.141,34.141-33.76V33.758C100,15.148,84.68,0.008,65.859,0.008z M85,66.229c0,10.344-8.586,18.76-19.145,18.76
		L50,84.992l-15.855-0.004C23.586,84.988,15,76.572,15,66.229V33.758c0-3.231,0.838-6.273,2.313-8.931
		c1.42-2.557,3.429-4.756,5.848-6.421c3.11-2.141,6.897-3.398,10.979-3.398h31.719C76.414,15.008,85,23.419,85,33.758V66.229z"/>
</g>
</g></g><g transform="translate(96,96) scale(1.44, 1.44)"><g transform="" style="fill: rgb(0, 0, 0);">
<g>
	<g id="XMLID_1_">
		<g>
			<path d="M27.351,100c-15.09,0-27.365-12.032-27.365-26.808V26.794c0-4.616,1.2-8.96,3.301-12.761
				c2.029-3.658,4.901-6.802,8.36-9.174C16.09,1.801,21.506,0,27.336,0h45.327c15.076,0,27.351,12.018,27.351,26.793v46.398
				c0,14.775-12.274,26.808-27.351,26.808H50H27.351z"/>
		</g>
		<g>
		</g>
	</g>
</g>
</g></g><g transform="translate(768,96) scale(1.44, 1.44)"><g transform="" style="fill: rgb(0, 0, 0);">
<g>
	<g id="XMLID_1_">
		<g>
			<path d="M27.351,100c-15.09,0-27.365-12.032-27.365-26.808V26.794c0-4.616,1.2-8.96,3.301-12.761
				c2.029-3.658,4.901-6.802,8.36-9.174C16.09,1.801,21.506,0,27.336,0h45.327c15.076,0,27.351,12.018,27.351,26.793v46.398
				c0,14.775-12.274,26.808-27.351,26.808H50H27.351z"/>
		</g>
		<g>
		</g>
	</g>
</g>
</g></g><g transform="translate(96,768) scale(1.44, 1.44)"><g transform="" style="fill: rgb(0, 0, 0);">
<g>
	<g id="XMLID_1_">
		<g>
			<path d="M27.351,100c-15.09,0-27.365-12.032-27.365-26.808V26.794c0-4.616,1.2-8.96,3.301-12.761
				c2.029-3.658,4.901-6.802,8.36-9.174C16.09,1.801,21.506,0,27.336,0h45.327c15.076,0,27.351,12.018,27.351,26.793v46.398
				c0,14.775-12.274,26.808-27.351,26.808H50H27.351z"/>
		</g>
		<g>
		</g>
	</g>
</g>
</g></g></g></svg>